<svg width="57" height="56" viewBox="0 0 57 56" fill="none" xmlns="http://www.w3.org/2000/svg">
<rect x="4.33331" y="4" width="48" height="48" rx="24" fill="#CBEEEF"/>
<path d="M20.3333 20H36.3333C37.4333 20 38.3333 20.9 38.3333 22V34C38.3333 35.1 37.4333 36 36.3333 36H20.3333C19.2333 36 18.3333 35.1 18.3333 34V22C18.3333 20.9 19.2333 20 20.3333 20Z" fill="#16B1B5"/>
<path d="M38.3333 22L28.3333 29L18.3333 22" fill="#16B1B5"/>
<path d="M38.3333 22C38.3333 20.9 37.4333 20 36.3333 20H20.3333C19.2333 20 18.3333 20.9 18.3333 22M38.3333 22V34C38.3333 35.1 37.4333 36 36.3333 36H20.3333C19.2333 36 18.3333 35.1 18.3333 34V22M38.3333 22L28.3333 29L18.3333 22" stroke="#0DD1D6" stroke-width="2" stroke-linecap="round" stroke-linejoin="round"/>
<rect x="4.33331" y="4" width="48" height="48" rx="24" stroke="#E6F0F0" stroke-width="8"/>
</svg>
